inDegrees=yes
name=ik_MT_012005D6_009-001_orientations.mot
DataType=double
version=3
OpenSimVersion=4.3-2021-08-27-4bc7ad9
endheader
time	pelvis_tilt	pelvis_list	pelvis_rotation	pelvis_tx	pelvis_ty	pelvis_tz	hip_flexion_r	hip_adduction_r	hip_rotation_r	knee_angle_r	knee_angle_r_beta	ankle_angle_r	subtalar_angle_r	mtp_angle_r	hip_flexion_l	hip_adduction_l	hip_rotation_l	knee_angle_l	knee_angle_l_beta	ankle_angle_l	subtalar_angle_l	mtp_angle_l	lumbar_extension	lumbar_bending	lumbar_rotation	arm_flex_r	arm_add_r	arm_rot_r	elbow_flex_r	pro_sup_r	wrist_flex_r	wrist_dev_r	arm_flex_l	arm_add_l	arm_rot_l	elbow_flex_l	pro_sup_l	wrist_flex_l	wrist_dev_l
17.50000000000029	183.1796463261328	181.8584856078718	181.1575285778877	0	0.9399999999999999	0	-7.432550376448273	0.7287209468031935	0.8141477588164012	0.937324392196871	0.01635939680309004	6.527789225281505	0	0	-5.785114621725996	-2.828801320039048	0.6965327815119059	2.272234455738052	0.03965797262989037	6.091174827840178	0	0	-0.6439991097273418	1.871336012174696	-0.2564346034033659	-3.726382312687915	-14.7600233810227	-1.9782080304057	10.45131451923346	1.006502629945727	0	0	-5.13392253718107	-2.97277572471755	-2.631648544207693	1.498722975385205	9.753197982731033	0	0
17.51666666666695	183.1948410341517	181.8714140399755	181.162370056197	0	0.9399999999999999	0	-7.420112420294387	0.7235623321185835	0.820414545015568	0.9369766654358951	0.01635332782621372	6.514247142440381	0	0	-5.784994594336219	-2.832133655203591	0.6806858163267939	2.24297104027877	0.03914722967974689	6.046586053261068	0	0	-0.6171981912780125	1.860585230623363	-0.2803465800585356	-3.767190915943796	-14.77945374006381	-2.056920125877599	10.42754716834946	0.9583415663880775	0	0	-5.041381481742214	-2.963726630316189	-2.693800339652707	1.554266669600398	9.800321058114909	0	0
17.53333333333362	183.1514089072004	181.8750374762099	181.1881141282851	0	0.9399999999999999	0	-7.308234937393729	0.7142849193528094	0.7841704582295894	0.9165104285095469	0.0159961246063557	6.440988317555773	0	0	-5.698459675877606	-2.727612339454015	0.7295455241273476	2.120586655619336	0.03701121921441253	5.826297575338681	0	0	-0.6245942412366382	1.880953824886573	-0.2453944095356749	-3.81249135130616	-14.86286936768471	-2.2076714587328	10.54820873259223	0.8771758041197421	0	0	-4.960039393160389	-2.938413389680785	-2.898581609927166	1.750483117843268	10.16916170815993	0	0
17.55000000000028	183.160236853748	181.9137439175242	181.1971205348727	0	0.9399999999999999	0	-7.282824953306974	0.7444950668277825	0.7766182973099048	0.9060881194238158	0.01581422099714917	6.427410357247134	0	0	-5.680021488732337	-2.649530097175395	0.7227213953548344	2.100144601342621	0.03665443806141246	5.775390977552413	0	0	-0.6228795295164512	1.900354011555461	-0.2643325464920886	-3.858693370216236	-14.8740779288654	-2.282326959924434	10.55991621518897	0.8163058618397022	0	0	-4.904287306895251	-2.937596808890652	-2.959608134732352	1.857946310333099	10.23092939243609	0	0
17.56666666666695	182.9120394299434	181.931745105823	181.2355977341265	0	0.9399999999999999	0	-6.532563002033116	0.7081548607286763	0.5704735605399448	1.644764516816183	0.02870655623841603	6.643160305428522	0	0	-5.017166046651514	-2.627320881621482	0.6736941662584001	2.664840884580232	0.04651024747768324	5.865111825959109	0	0	-0.2819662581632479	1.922583241741687	-0.3192304679644149	-4.250193636169231	-14.8510743896119	-2.920552997841798	10.94502534485598	1.445705960201365	0	0	-5.45398085579813	-3.042874698951233	-3.29755768676018	2.731562355467969	10.58299577133012	0	0
17.58333333333362	183.0327025216181	182.0046234129827	181.258655979858	0	0.9399999999999999	0	-7.044125366832171	0.695286011094973	0.6788446246538062	0.8275816083191556	0.01444402389411936	6.222067957206828	0	0	-5.490467350836066	-2.676718074011258	0.7965431135281481	1.903833755954012	0.03322816745200771	5.418455376119213	0	0	-0.470001819337745	1.996980846001897	-0.2972691609744847	-4.107505291111674	-14.7747806369307	-2.574608690090601	10.73653003512041	0.7420137500952083	0	0	-5.060209981768009	-3.009499244910419	-3.207690179079039	2.312294447742709	10.46869948878635	0	0
17.60000000000028	183.053980885957	182.0858918604419	181.3101786823792	0	0.9399999999999999	0	-6.994694223347338	0.7506518662844959	0.6073146601746922	0.8499963668554326	0.0148352352316169	6.20258096958471	0	0	-5.504032018557984	-2.720039757886425	0.850882076010139	1.783555727121414	0.0311289198310702	5.24515901055475	0	0	-0.5384617838718717	2.089555706249592	-0.2624911475331966	-4.186303701683364	-14.62072353964706	-2.795864538108592	10.74173041407791	0.7496628581200264	0	0	-5.125292036567819	-3.028816212579606	-3.154438428045833	2.449602833335041	10.40343780588598	0	0
17.61666666666695	183.0506419819709	182.097816119498	181.3052969471991	0	0.9399999999999999	0	-6.946948850982918	0.7555767322495427	0.6116755651184852	0.8318372340005697	0.01451829857399246	6.157737469348642	6.735086514358763e-36	0	-5.459305417182168	-2.652409431228947	0.8468290189969577	1.779758379985551	0.03106264362070821	5.16836281395813	0	0	-0.6195574531683968	2.159283800281401	-0.2784401470145104	-4.264144118117781	-14.53164381677465	-2.877680757516727	10.74249843719362	0.7439517343948264	2.896087201174268e-35	4.310455369189608e-35	-5.186308992944239	-3.048953610202037	-3.249583824442551	2.44490315708877	10.37913814536192	8.587235305807422e-35	0
17.63333333333361	183.0735746241991	182.1753146876523	181.3180492665987	0	0.9399999999999999	0	-6.90612126695326	0.8445869796680028	0.6008625053001698	0.7779194237371494	0.01357725525943019	5.94150276586757	0	0	-5.396761866097391	-2.689630140846108	0.8644849879216846	1.679748372076536	0.02931713969775034	4.798749362644509	0	0	-0.6140027689956666	2.219987456563211	-0.2748208127696465	-4.64761809452964	-14.39598204665673	-3.135076599612009	10.97048016156151	0.8142766740602613	0	0	-5.512198539383032	-3.247293529886209	-3.340569893442405	2.476937033144616	10.41936859666547	0	0
17.65000000000028	183.0858286610457	182.2180064367626	181.3332670502613	0	0.9399999999999999	0	-6.863258574970402	0.8550298947533638	0.5858538013097773	0.7527244210106818	0.01313751950680438	5.831341841469266	0	0	-5.360476694699532	-2.691425858924233	0.89327111293596	1.584649095215646	0.02765734420026215	4.571072256663713	0	0	-0.6063091950482197	2.288591437025543	-0.2770762414996459	-5.062674958106179	-14.43636568038409	-3.416519031589856	11.22739505906589	0.8912982172157717	0	0	-5.864356667854246	-3.539144576597285	-3.321846056706518	2.432437505415272	10.28707738626161	0	0
17.66666666666694	183.0940316418942	182.2480644398448	181.3475607208857	0	0.9399999999999999	0	-6.811756564607181	0.8808466216680441	0.5690897491620979	0.7329547310869382	0.01279247332553671	5.676579633176911	0	0	-5.310958246368427	-2.682343516058483	0.9146362410463605	1.516452534268149	0.02646708967319134	4.341515068435468	0	0	-0.6286169802638032	2.35045316353567	-0.2906287458856608	-5.532966560854109	-14.65686938387078	-3.767976217415591	11.63553310499901	1.002415992081674	0	0	-6.258561670081878	-4.109097549513695	-3.372612029877086	2.564258617988719	10.12227493626098	0	0
17.68333333333361	183.1071508666385	182.2765816458322	181.3685499746587	0	0.9399999999999999	0	-6.747049185211757	0.9020367523038095	0.5366183263192381	0.6921452890912843	0.0120802141968109	5.509325858313858	0	0	-5.279386701094209	-2.656058886404292	0.9384831649332119	1.419326926521339	0.02477192803000899	4.166516258499417	0	0	-0.5751843166071382	2.414488085254566	-0.2859265681154802	-6.193580182435649	-15.01877934228418	-4.252596063771708	12.13767345185332	1.180872920306146	0	0	-6.857849153227904	-4.889529214724901	-3.549637406856957	2.892479687384923	9.995827636703803	0	0
17.70000000000028	183.1085702236881	182.2907613670424	181.3808271573219	0	0.9399999999999999	0	-6.664699285387194	0.897783565128109	0.4895299828544948	0.6463867965406532	0.01128157784105309	5.26372025314234	0	0	-5.254551424648527	-2.634950062028962	0.9562280260327261	1.333914981617215	0.02328120837090004	3.994377663771061	0	0	-0.4951790586844062	2.493754834807045	-0.3066210526798544	-6.970171469121141	-15.49787657408757	-4.794104126213793	12.72725803181281	1.47747960856509	0	0	-7.630988553409961	-5.767374997667721	-3.883638886912931	3.414638213412578	9.925863276925174	0	0
